HIERARCHY
ROOT hip
{
	OFFSET 0.000000 0.000000 0.000000 
	CHANNELS 6 Xposition Yposition Zposition Zrotation Xrotation Yrotation
	JOINT abdomen
	{
		OFFSET 0.000000 3.402643 0.000000 
		CHANNELS 3 Zrotation Xrotation Yrotation
		JOINT chest
		{
			OFFSET 0.000000 8.438565 -0.680529 
			CHANNELS 3 Zrotation Xrotation Yrotation
			JOINT neck
			{
				OFFSET 0.000000 10.207942 -0.272212 
				CHANNELS 3 Zrotation Xrotation Yrotation
				JOINT head
				{
					OFFSET 0.000000 3.130431 0.000000 
					CHANNELS 3 Zrotation Xrotation Yrotation
					End Site
					{
						OFFSET 0.000000 3.130435 0.000000 
					}
				}
			}
			JOINT lCollar
			{
				OFFSET 3.470700 6.669187 -0.816635 
				CHANNELS 3 Zrotation Xrotation Yrotation
				JOINT lShldr
				{
					OFFSET 3.198488 0.000000 0.000000 
					CHANNELS 3 Zrotation Xrotation Yrotation
					JOINT lForeArm
					{
						OFFSET 10.139888 0.000000 0.000000 
						CHANNELS 3 Zrotation Xrotation Yrotation
						JOINT lHand
						{
							OFFSET 8.370511 0.000000 0.000000 
							CHANNELS 3 Zrotation Xrotation Yrotation
							End Site
							{
								OFFSET 4.083176 0.000000 0.000000 
							}
						}
					}
				}
			}
			JOINT rCollar
			{
				OFFSET -3.470700 6.669187 -0.816635 
				CHANNELS 3 Zrotation Xrotation Yrotation
				JOINT rShldr
				{
					OFFSET -3.198488 0.000000 0.000000 
					CHANNELS 3 Zrotation Xrotation Yrotation
					JOINT rForeArm
					{
						OFFSET -10.139888 0.000000 0.000000 
						CHANNELS 3 Zrotation Xrotation Yrotation
						JOINT rHand
						{
							OFFSET -8.370511 0.000000 0.000000 
							CHANNELS 3 Zrotation Xrotation Yrotation
							End Site
							{
								OFFSET -4.083176 0.000000 0.000000 
							}
						}
					}
				}
			}
		}
	}
	JOINT lThigh
	{
		OFFSET 5.308129 -1.633274 1.361059 
		CHANNELS 3 Zrotation Xrotation Yrotation
		JOINT lShin
		{
			OFFSET -2.041588 -20.007561 0.000000 
			CHANNELS 3 Zrotation Xrotation Yrotation
			JOINT lFoot
			{
				OFFSET 0.000000 -19.190928 -1.224953 
				CHANNELS 3 Zrotation Xrotation Yrotation
				End Site
				{
					OFFSET 0.000000 -2.449906 4.627600 
				}
			}
		}
	}
	JOINT rThigh
	{
		OFFSET -5.308129 -1.633274 1.361059 
		CHANNELS 3 Zrotation Xrotation Yrotation
		JOINT rShin
		{
			OFFSET 2.041588 -20.007561 0.000000 
			CHANNELS 3 Zrotation Xrotation Yrotation
			JOINT rFoot
			{
				OFFSET 0.000000 -19.190928 -1.224953 
				CHANNELS 3 Zrotation Xrotation Yrotation
				End Site
				{
					OFFSET 0.000000 -2.449906 4.627600 
				}
			}
		}
	}
}
MOTION
Frames: 10
Frame Time: 0.033333
0.000000 48.013634 0.291666 0.625536 -2.372920 2.047384 -0.000000 -0.000002 -0.000000 -0.000000 -0.000003 -0.000000 5.914571 4.225508 -2.527189 0.048834 -0.917969 7.188281 -0.728596 1.777719 14.694583 -81.123055 6.577175 8.631460 11.747293 27.401796 -17.379101 6.483388 0.928497 5.946671 -0.919311 -5.368109 -16.332399 75.945847 20.363253 1.687520 7.764807 -7.899786 9.666463 -9.279510 6.894079 0.205183 -1.400288 -4.246113 -1.917709 -0.906066 11.307488 -3.777866 -10.461434 42.707066 17.288746 -0.019740 -9.841500 -3.712571 -1.941134 12.627641 0.712209 -0.507194 48.282131 -2.225048 
0.000000 48.013634 0.291666 0.625536 -2.372920 2.047384 -0.000000 -0.000002 -0.000000 -0.000000 -0.000003 -0.000000 5.914571 4.225508 -2.527189 0.048834 -0.917969 7.188281 -0.728596 1.777719 14.694583 -81.844048 6.477160 8.747675 11.446395 27.520315 -17.447992 6.272621 0.912611 5.791503 -0.919311 -5.368109 -16.332399 75.560417 20.349825 2.010279 8.212765 -7.801187 9.544004 -9.279510 6.894079 0.205183 -1.252125 -4.173185 -1.888011 -0.879000 12.147109 -3.630762 -10.386653 42.435577 16.932606 -0.188154 -9.733543 -3.798404 -2.137742 13.386820 0.800519 -0.452247 48.113777 -2.489347 
0.000000 48.013634 0.291666 0.625536 -2.372920 2.047384 -0.000000 -0.000002 -0.000000 -0.000000 -0.000003 -0.000000 5.914571 4.225508 -2.527189 0.048834 -0.917969 7.188281 -0.728596 1.777719 14.694583 -82.561996 6.388947 8.824772 11.133089 27.631695 -17.514364 6.052718 0.885245 5.643156 -0.919311 -5.368109 -16.332399 75.169403 20.326834 2.322433 8.671209 -7.712152 9.411196 -9.279510 6.894079 0.205183 -1.105766 -4.097334 -1.878584 -1.030791 12.654464 -3.645833 -10.344535 42.455856 17.030205 -0.395942 -9.614429 -3.830407 -2.539668 14.330244 0.902738 -0.333156 47.982815 -2.612731 
0.000000 48.013634 0.291666 0.625536 -2.372920 2.047384 -0.000000 -0.000002 -0.000000 -0.000000 -0.000003 -0.000000 5.914571 4.225508 -2.527189 0.048834 -0.917969 7.188281 -0.728596 1.777719 14.694583 -83.085197 6.316485 8.626987 10.853502 27.727036 -17.574493 5.865477 0.869483 5.515437 -0.919311 -5.368109 -16.332399 74.843262 20.314999 2.447231 9.073705 -7.626161 9.299075 -9.279510 6.894079 0.205183 -0.900127 -4.079120 -1.771831 -1.212240 12.926923 -3.824662 -10.579129 42.888680 17.189991 -0.643023 -9.504595 -3.897732 -2.996728 15.319134 1.032856 -0.351637 48.016167 -2.529007 
0.000000 48.013634 0.291666 0.625536 -2.372920 2.047384 -0.000000 -0.000002 -0.000000 -0.000000 -0.000003 -0.000000 5.914571 4.225508 -2.527189 0.048834 -0.917969 7.188281 -0.728596 1.777719 14.694583 -83.244438 6.316027 7.958774 10.672603 27.794741 -17.623526 5.746563 0.844471 5.436109 -0.919311 -5.368109 -16.332399 74.642929 20.298622 2.238704 9.349513 -7.575206 9.220831 -9.279510 6.894079 0.205183 -0.616177 -4.076109 -1.822806 -1.395751 13.462967 -3.706891 -10.583702 42.949036 17.267012 -0.960121 -9.439115 -3.968664 -3.325742 16.259195 1.176376 -0.411289 48.102654 -2.533075 
0.000000 48.013634 0.291666 0.625536 -2.372920 2.047384 -0.000000 -0.000002 -0.000000 -0.000000 -0.000003 -0.000000 5.914571 4.225508 -2.527189 0.048834 -0.917969 7.188281 -0.728596 1.777719 14.694583 -82.905602 6.383490 6.692070 10.601906 27.817909 -17.632418 5.698265 0.840075 5.390991 -0.919311 -5.368109 -16.332399 74.625610 20.295593 1.613894 9.451402 -7.555803 9.197600 -9.279510 6.894079 0.205183 -0.263963 -4.173688 -1.781898 -1.546301 13.511815 -3.823826 -10.955916 43.400112 17.603395 -1.286716 -9.419724 -4.054125 -3.729326 17.094236 1.301632 -0.510302 48.097443 -2.400660 
0.000000 48.013634 0.291666 0.625536 -2.372920 2.047384 -0.000000 -0.000002 -0.000000 -0.000000 -0.000003 -0.000000 5.914571 4.225508 -2.527189 0.048834 -0.917969 7.188281 -0.728596 1.777719 14.694583 -82.213058 6.498384 5.130708 10.635676 27.801933 -17.626432 5.717879 0.846945 5.415743 -0.919311 -5.368109 -16.332399 74.756989 20.291582 0.728830 9.395708 -7.566520 9.209386 -9.279510 6.894079 0.205183 0.009823 -4.295270 -1.726775 -1.609574 13.919109 -3.775903 -10.809623 43.513008 17.507713 -1.642425 -9.443901 -4.137534 -3.915555 17.685181 1.357038 -0.532216 48.164658 -2.415519 
0.000000 48.013634 0.291666 0.625536 -2.372920 2.047384 -0.000000 -0.000002 -0.000000 -0.000000 -0.000003 -0.000000 5.914571 4.225508 -2.527189 0.048834 -0.917969 7.188281 -0.728596 1.777719 14.694583 -81.360146 6.627220 3.657283 10.753848 27.762772 -17.599760 5.800468 0.848174 5.473212 -0.919311 -5.368109 -16.332399 74.986832 20.283094 -0.187403 9.231227 -7.595681 9.264162 -9.279510 6.894079 0.205183 0.068580 -4.420696 -1.682422 -1.625865 14.779525 -3.560273 -10.279298 42.785870 17.161161 -1.930271 -9.494673 -4.047642 -3.992900 17.989464 1.373217 -0.374101 48.265331 -2.617164 
0.000000 48.013634 0.291666 0.625536 -2.372920 2.047384 -0.000000 -0.000002 -0.000000 -0.000000 -0.000003 -0.000000 5.914571 4.225508 -2.527189 0.048834 -0.917969 7.188281 -0.728596 1.777719 14.694583 -80.565796 6.741371 2.655089 10.925522 27.696848 -17.551434 5.912161 0.868316 5.548107 -0.919311 -5.368109 -16.332399 75.264091 20.280981 -0.874533 8.973167 -7.644373 9.331939 -9.279510 6.894079 0.205183 0.058779 -4.540119 -1.576792 -1.553899 14.594536 -3.732115 -10.365382 42.905025 17.438295 -2.009990 -9.552139 -4.240185 -4.011566 17.884533 1.388382 -0.627716 48.196945 -2.314093 
0.000000 48.013634 0.291666 0.625536 -2.372920 2.047384 -0.000000 -0.000002 -0.000000 -0.000000 -0.000003 -0.000000 5.914571 4.225508 -2.527189 0.048834 -0.917969 7.188281 -0.728596 1.777719 14.694583 -80.037407 6.810215 2.537446 11.142350 27.629997 -17.513639 6.063468 0.881577 5.651116 -0.919311 -5.368109 -16.332399 75.536438 20.289194 -1.124463 8.663026 -7.712771 9.421261 -9.279510 6.894079 0.205183 -0.000000 -4.586533 -1.559778 -1.426848 13.650377 -3.872948 -10.647573 43.392410 17.704733 -1.891171 -9.639999 -4.210619 -3.804447 17.276928 1.356776 -0.469992 48.066864 -2.442961 
